<svg width="44" height="44" viewBox="0 0 44 44" fill="none" xmlns="http://www.w3.org/2000/svg">
<rect width="44" height="44" rx="12" fill="#DCF2ED"/>
<path d="M17.52 31.48C14.25 29.94 11.91 26.76 11.55 23H10.05C10.56 29.16 15.71 34 22 34L22.66 33.97L18.85 30.16L17.52 31.48ZM18.41 24.96C18.22 24.96 18.04 24.93 17.89 24.88C17.73 24.82 17.6 24.75 17.49 24.64C17.38 24.54 17.29 24.42 17.23 24.27C17.17 24.13 17.14 23.97 17.14 23.8H15.84C15.84 24.16 15.91 24.48 16.05 24.75C16.19 25.02 16.38 25.25 16.61 25.44C16.85 25.62 17.12 25.76 17.43 25.85C17.73 25.95 18.05 26 18.39 26C18.76 26 19.11 25.95 19.42 25.85C19.74 25.75 20.02 25.6 20.25 25.41C20.48 25.22 20.67 24.98 20.8 24.69C20.93 24.4 21 24.08 21 23.72C21 23.53 20.98 23.34 20.93 23.16C20.88 22.98 20.81 22.81 20.7 22.65C20.6 22.49 20.46 22.35 20.3 22.22C20.13 22.09 19.93 21.99 19.69 21.91C19.89 21.82 20.06 21.71 20.21 21.58C20.36 21.45 20.48 21.31 20.58 21.16C20.68 21.01 20.75 20.86 20.8 20.7C20.85 20.54 20.87 20.38 20.87 20.22C20.87 19.86 20.81 19.54 20.69 19.26C20.57 18.98 20.4 18.75 20.18 18.57C19.98 18.38 19.71 18.24 19.41 18.14C19.1 18.05 18.76 18 18.39 18C18.03 18 17.7 18.05 17.39 18.16C17.09 18.27 16.82 18.42 16.6 18.61C16.39 18.8 16.22 19.02 16.09 19.28C15.97 19.54 15.91 19.82 15.91 20.13H17.21C17.21 19.96 17.24 19.81 17.3 19.68C17.36 19.55 17.44 19.43 17.55 19.34C17.66 19.25 17.78 19.17 17.93 19.12C18.08 19.07 18.23 19.04 18.41 19.04C18.81 19.04 19.11 19.14 19.3 19.35C19.49 19.55 19.59 19.84 19.59 20.21C19.59 20.39 19.56 20.55 19.51 20.7C19.46 20.85 19.37 20.97 19.26 21.07C19.15 21.17 19.01 21.25 18.85 21.31C18.69 21.37 18.49 21.4 18.27 21.4H17.5V22.43H18.27C18.49 22.43 18.69 22.45 18.87 22.5C19.05 22.55 19.2 22.63 19.32 22.73C19.44 22.84 19.54 22.97 19.61 23.13C19.68 23.29 19.71 23.48 19.71 23.7C19.71 24.11 19.59 24.42 19.36 24.63C19.13 24.86 18.81 24.96 18.41 24.96ZM26.96 19.04C26.64 18.71 26.26 18.45 25.82 18.27C25.39 18.09 24.9 18 24.36 18H22V26H24.3C24.85 26 25.36 25.91 25.81 25.73C26.26 25.55 26.65 25.3 26.97 24.97C27.29 24.64 27.54 24.24 27.71 23.78C27.88 23.31 27.97 22.79 27.97 22.21V21.81C27.97 21.23 27.88 20.71 27.71 20.24C27.53 19.77 27.28 19.37 26.96 19.04ZM26.57 22.2C26.57 22.62 26.5201 22.99 26.43 23.33C26.33 23.66 26.19 23.95 26 24.18C25.81 24.41 25.57 24.59 25.29 24.71C25 24.83 24.67 24.89 24.3 24.89H23.39V19.12H24.36C25.08 19.12 25.63 19.35 26 19.81C26.38 20.27 26.57 20.93 26.57 21.8V22.2ZM22 10L21.34 10.03L25.15 13.84L26.48 12.51C29.75 14.06 32.09 17.23 32.4401 20.99H33.9401C33.4401 14.84 28.29 10 22 10Z" fill="#20484F"/>
</svg>
