<svg width="357" height="380" viewBox="0 0 357 380" fill="none" xmlns="http://www.w3.org/2000/svg">
<path d="M0.531342 196.767C14.4333 383.961 136.167 381.571 210.552 378.212C349.552 371.934 363.456 266.277 355.065 150.508C348.187 55.6202 311.321 8.05189 200.564 0.899975C19.5519 -10.7886 0.531342 93.3825 0.531342 196.767Z" fill="#20484F"/>
<g clip-path="url(#clip0_217_1986)">
<g filter="url(#filter0_i_217_1986)">
<g filter="url(#filter1_i_217_1986)">
<path d="M326.874 137H30.1247C24.5327 137 19.9995 141.533 19.9995 147.125V239.875C19.9995 245.467 24.5327 250 30.1247 250H326.874C332.466 250 337 245.467 337 239.875V147.125C337 141.533 332.466 137 326.874 137Z" fill="white"/>
</g>
<path d="M70.0005 212.001C84.9125 212.001 97.001 199.912 97.001 185.001C97.001 170.089 84.9125 158 70.0005 158C55.0885 158 43 170.089 43 185.001C43 199.912 55.0885 212.001 70.0005 212.001Z" fill="#DCF2ED"/>
<path d="M66.4153 189.985L61.4308 185.001L59.7334 186.686L66.4153 193.368L80.759 179.024L79.074 177.339L66.4153 189.985Z" fill="#20484F"/>
<path d="M108.057 179H110.811V173.431H113.686C114.712 173.431 115.617 173.249 116.4 172.884C117.183 172.506 117.797 171.96 118.243 171.244C118.702 170.529 118.931 169.671 118.931 168.672C118.931 167.646 118.708 166.782 118.263 166.08C117.817 165.378 117.196 164.845 116.4 164.481C115.617 164.103 114.712 163.914 113.686 163.914H108.057V179ZM110.811 171.001V166.344H113.727C114.469 166.344 115.063 166.553 115.509 166.971C115.954 167.39 116.177 167.957 116.177 168.672C116.177 169.374 115.954 169.941 115.509 170.373C115.063 170.792 114.469 171.001 113.727 171.001H110.811ZM120.965 179H123.618V172.864C123.618 172.027 123.847 171.379 124.306 170.92C124.779 170.448 125.386 170.211 126.129 170.211H127.081V167.862H126.433C125.758 167.862 125.164 167.984 124.651 168.227C124.138 168.47 123.739 168.909 123.456 169.543V167.984H120.965V179ZM133.926 179.243C134.992 179.243 135.964 179 136.842 178.514C137.719 178.015 138.421 177.333 138.948 176.469C139.474 175.591 139.738 174.599 139.738 173.492C139.738 172.385 139.474 171.399 138.948 170.535C138.435 169.671 137.74 168.99 136.862 168.49C135.985 167.991 135.006 167.741 133.926 167.741C132.832 167.741 131.847 167.991 130.969 168.49C130.092 168.99 129.39 169.671 128.863 170.535C128.35 171.399 128.094 172.385 128.094 173.492C128.094 174.599 128.35 175.584 128.863 176.449C129.39 177.313 130.092 177.994 130.969 178.494C131.86 178.993 132.846 179.243 133.926 179.243ZM133.926 176.813C133.332 176.813 132.799 176.671 132.326 176.388C131.867 176.104 131.502 175.713 131.232 175.213C130.976 174.7 130.848 174.126 130.848 173.492C130.848 172.857 130.976 172.29 131.232 171.791C131.502 171.291 131.867 170.9 132.326 170.616C132.799 170.319 133.332 170.171 133.926 170.171C134.52 170.171 135.04 170.319 135.485 170.616C135.944 170.9 136.302 171.291 136.558 171.791C136.828 172.29 136.963 172.857 136.963 173.492C136.963 174.126 136.828 174.7 136.558 175.213C136.302 175.713 135.944 176.104 135.485 176.388C135.04 176.671 134.52 176.813 133.926 176.813ZM141.749 166.749H144.402V163.914H141.749V166.749ZM140.231 183.475C141.513 183.475 142.526 183.138 143.268 182.463C144.024 181.788 144.402 180.823 144.402 179.567V167.984H141.749V179.567C141.749 180.094 141.587 180.485 141.263 180.742C140.953 181.012 140.514 181.147 139.947 181.147C139.691 181.147 139.448 181.126 139.218 181.086V183.394C139.34 183.421 139.495 183.442 139.684 183.455C139.873 183.469 140.055 183.475 140.231 183.475ZM152.076 179.243C153.197 179.243 154.175 178.993 155.012 178.494C155.863 177.981 156.457 177.333 156.794 176.55L154.648 175.497C154.405 175.915 154.067 176.26 153.635 176.53C153.217 176.786 152.704 176.914 152.096 176.914C151.3 176.914 150.632 176.671 150.092 176.185C149.552 175.699 149.241 175.051 149.16 174.241H157.098C157.152 174.093 157.186 173.924 157.199 173.735C157.226 173.532 157.24 173.33 157.24 173.127C157.24 172.142 157.031 171.244 156.612 170.434C156.194 169.624 155.586 168.976 154.79 168.49C153.993 167.991 153.021 167.741 151.874 167.741C150.848 167.741 149.916 167.991 149.079 168.49C148.256 168.99 147.601 169.671 147.115 170.535C146.642 171.386 146.406 172.365 146.406 173.472C146.406 174.538 146.642 175.51 147.115 176.388C147.587 177.265 148.249 177.961 149.099 178.474C149.95 178.987 150.942 179.243 152.076 179.243ZM151.874 169.928C152.576 169.928 153.156 170.144 153.615 170.576C154.088 170.994 154.351 171.541 154.405 172.216H149.221C149.369 171.487 149.68 170.927 150.152 170.535C150.638 170.13 151.212 169.928 151.874 169.928ZM164.556 179.243C165.353 179.243 166.089 179.108 166.764 178.838C167.439 178.555 168.019 178.17 168.505 177.684C168.991 177.184 169.342 176.624 169.558 176.003L167.23 174.95C167.014 175.53 166.669 175.989 166.197 176.327C165.738 176.651 165.191 176.813 164.556 176.813C163.976 176.813 163.456 176.671 162.997 176.388C162.552 176.104 162.201 175.713 161.944 175.213C161.688 174.7 161.559 174.126 161.559 173.492C161.559 172.844 161.688 172.27 161.944 171.771C162.201 171.271 162.552 170.88 162.997 170.596C163.456 170.313 163.976 170.171 164.556 170.171C165.191 170.171 165.738 170.34 166.197 170.677C166.669 171.015 167.014 171.46 167.23 172.014L169.558 171.001C169.329 170.353 168.971 169.786 168.485 169.3C167.999 168.801 167.419 168.416 166.744 168.146C166.069 167.876 165.34 167.741 164.556 167.741C163.463 167.741 162.477 167.991 161.6 168.49C160.736 168.99 160.054 169.671 159.555 170.535C159.055 171.399 158.805 172.378 158.805 173.472C158.805 174.565 159.055 175.551 159.555 176.428C160.054 177.292 160.736 177.981 161.6 178.494C162.477 178.993 163.463 179.243 164.556 179.243ZM176.593 179.122C177.039 179.122 177.478 179.088 177.91 179.02V176.732C177.653 176.773 177.417 176.793 177.201 176.793C176.553 176.793 176.08 176.644 175.783 176.347C175.486 176.05 175.338 175.625 175.338 175.071V170.353H177.869V167.984H175.338V165.473H172.685V166.323C172.685 166.863 172.536 167.275 172.239 167.559C171.942 167.842 171.524 167.984 170.984 167.984H170.781V170.353H172.685V175.213C172.685 176.442 173.022 177.4 173.697 178.089C174.386 178.777 175.351 179.122 176.593 179.122ZM189.57 179.243C190.731 179.243 191.757 179 192.648 178.514C193.553 178.028 194.261 177.36 194.774 176.509C195.287 175.659 195.544 174.693 195.544 173.613V163.914H192.79V173.472C192.79 174.106 192.648 174.673 192.365 175.173C192.095 175.659 191.717 176.043 191.231 176.327C190.758 176.597 190.205 176.732 189.57 176.732C188.949 176.732 188.396 176.597 187.91 176.327C187.424 176.043 187.039 175.659 186.755 175.173C186.485 174.673 186.35 174.106 186.35 173.472V163.914H183.596V173.613C183.596 174.693 183.853 175.659 184.366 176.509C184.879 177.36 185.581 178.028 186.472 178.514C187.376 179 188.409 179.243 189.57 179.243ZM198.071 183.05H200.723V177.947C201.128 178.366 201.621 178.69 202.202 178.919C202.782 179.135 203.41 179.243 204.085 179.243C205.152 179.243 206.103 178.993 206.94 178.494C207.777 177.981 208.439 177.292 208.925 176.428C209.411 175.551 209.654 174.572 209.654 173.492C209.654 172.412 209.411 171.44 208.925 170.576C208.439 169.698 207.777 169.01 206.94 168.51C206.103 167.997 205.158 167.741 204.105 167.741C203.349 167.741 202.668 167.876 202.06 168.146C201.453 168.416 200.953 168.794 200.561 169.28V167.984H198.071V183.05ZM203.781 176.813C203.201 176.813 202.674 176.671 202.202 176.388C201.743 176.104 201.378 175.713 201.108 175.213C200.852 174.714 200.723 174.14 200.723 173.492C200.723 172.844 200.852 172.27 201.108 171.771C201.378 171.271 201.743 170.88 202.202 170.596C202.674 170.313 203.201 170.171 203.781 170.171C204.389 170.171 204.922 170.319 205.381 170.616C205.854 170.9 206.225 171.291 206.495 171.791C206.765 172.29 206.9 172.857 206.9 173.492C206.9 174.126 206.765 174.7 206.495 175.213C206.225 175.713 205.854 176.104 205.381 176.388C204.922 176.671 204.389 176.813 203.781 176.813ZM216.8 179.243C217.515 179.243 218.177 179.122 218.784 178.879C219.392 178.622 219.898 178.258 220.303 177.785V179H222.814V163.914H220.161V169.098C219.338 168.193 218.211 167.741 216.779 167.741C215.74 167.741 214.795 167.997 213.944 168.51C213.107 169.01 212.446 169.698 211.96 170.576C211.474 171.44 211.231 172.412 211.231 173.492C211.231 174.572 211.474 175.551 211.96 176.428C212.446 177.292 213.107 177.981 213.944 178.494C214.781 178.993 215.733 179.243 216.8 179.243ZM217.083 176.813C216.489 176.813 215.956 176.671 215.483 176.388C215.011 176.104 214.64 175.713 214.37 175.213C214.113 174.7 213.985 174.126 213.985 173.492C213.985 172.857 214.113 172.29 214.37 171.791C214.64 171.291 215.011 170.9 215.483 170.616C215.956 170.319 216.489 170.171 217.083 170.171C217.677 170.171 218.204 170.313 218.663 170.596C219.135 170.88 219.5 171.271 219.756 171.771C220.026 172.27 220.161 172.844 220.161 173.492C220.161 174.14 220.026 174.714 219.756 175.213C219.5 175.713 219.135 176.104 218.663 176.388C218.204 176.671 217.677 176.813 217.083 176.813ZM228.623 179.243C230.054 179.243 231.202 178.771 232.066 177.826V179H234.577V171.669C234.577 170.9 234.381 170.218 233.99 169.624C233.598 169.03 233.058 168.571 232.37 168.247C231.695 167.91 230.905 167.741 230 167.741C228.893 167.741 227.908 168.004 227.044 168.531C226.18 169.057 225.586 169.752 225.262 170.616L227.429 171.669C227.631 171.17 227.948 170.772 228.38 170.475C228.812 170.164 229.319 170.009 229.899 170.009C230.507 170.009 230.993 170.171 231.357 170.495C231.735 170.805 231.924 171.197 231.924 171.669V172.034L228.644 172.56C227.348 172.776 226.389 173.188 225.768 173.796C225.147 174.403 224.837 175.166 224.837 176.084C224.837 177.056 225.181 177.826 225.869 178.393C226.558 178.96 227.476 179.243 228.623 179.243ZM227.591 175.983C227.591 175.213 228.11 174.727 229.15 174.525L231.924 174.059V174.504C231.924 175.26 231.661 175.902 231.134 176.428C230.621 176.955 229.946 177.218 229.109 177.218C228.664 177.218 228.299 177.11 228.016 176.894C227.732 176.665 227.591 176.361 227.591 175.983ZM241.853 179.122C242.299 179.122 242.737 179.088 243.17 179.02V176.732C242.913 176.773 242.677 176.793 242.461 176.793C241.813 176.793 241.34 176.644 241.043 176.347C240.746 176.05 240.598 175.625 240.598 175.071V170.353H243.129V167.984H240.598V165.473H237.945V166.323C237.945 166.863 237.796 167.275 237.499 167.559C237.202 167.842 236.784 167.984 236.244 167.984H236.041V170.353H237.945V175.213C237.945 176.442 238.282 177.4 238.957 178.089C239.646 178.777 240.611 179.122 241.853 179.122ZM250.322 179.243C251.443 179.243 252.421 178.993 253.258 178.494C254.109 177.981 254.703 177.333 255.04 176.55L252.894 175.497C252.651 175.915 252.313 176.26 251.881 176.53C251.463 176.786 250.95 176.914 250.342 176.914C249.546 176.914 248.877 176.671 248.337 176.185C247.797 175.699 247.487 175.051 247.406 174.241H255.344C255.398 174.093 255.432 173.924 255.445 173.735C255.472 173.532 255.486 173.33 255.486 173.127C255.486 172.142 255.277 171.244 254.858 170.434C254.44 169.624 253.832 168.976 253.036 168.49C252.239 167.991 251.267 167.741 250.119 167.741C249.093 167.741 248.162 167.991 247.325 168.49C246.501 168.99 245.847 169.671 245.361 170.535C244.888 171.386 244.652 172.365 244.652 173.472C244.652 174.538 244.888 175.51 245.361 176.388C245.833 177.265 246.495 177.961 247.345 178.474C248.196 178.987 249.188 179.243 250.322 179.243ZM250.119 169.928C250.822 169.928 251.402 170.144 251.861 170.576C252.334 170.994 252.597 171.541 252.651 172.216H247.467C247.615 171.487 247.926 170.927 248.398 170.535C248.884 170.13 249.458 169.928 250.119 169.928ZM262.62 179.243C263.336 179.243 263.997 179.122 264.605 178.879C265.212 178.622 265.718 178.258 266.123 177.785V179H268.635V163.914H265.982V169.098C265.158 168.193 264.031 167.741 262.6 167.741C261.56 167.741 260.615 167.997 259.765 168.51C258.928 169.01 258.266 169.698 257.78 170.576C257.294 171.44 257.051 172.412 257.051 173.492C257.051 174.572 257.294 175.551 257.78 176.428C258.266 177.292 258.928 177.981 259.765 178.494C260.602 178.993 261.554 179.243 262.62 179.243ZM262.904 176.813C262.31 176.813 261.776 176.671 261.304 176.388C260.831 176.104 260.46 175.713 260.19 175.213C259.934 174.7 259.805 174.126 259.805 173.492C259.805 172.857 259.934 172.29 260.19 171.791C260.46 171.291 260.831 170.9 261.304 170.616C261.776 170.319 262.31 170.171 262.904 170.171C263.498 170.171 264.024 170.313 264.483 170.596C264.956 170.88 265.32 171.271 265.577 171.771C265.847 172.27 265.982 172.844 265.982 173.492C265.982 174.14 265.847 174.714 265.577 175.213C265.32 175.713 264.956 176.104 264.483 176.388C264.024 176.671 263.498 176.813 262.904 176.813Z" fill="#20484F"/>
<path d="M305 191H113C110.791 191 109 192.791 109 195C109 197.209 110.791 199 113 199H305C307.209 199 309 197.209 309 195C309 192.791 307.209 191 305 191Z" fill="#20484F" fill-opacity="0.1"/>
<path d="M238 208H113C110.791 208 109 209.791 109 212C109 214.209 110.791 216 113 216H238C240.209 216 242 214.209 242 212C242 209.791 240.209 208 238 208Z" fill="#20484F" fill-opacity="0.1"/>
</g>
</g>
<defs>
<filter id="filter0_i_217_1986" x="19.9995" y="137" width="317" height="115.111" filterUnits="userSpaceOnUse" color-interpolation-filters="sRGB">
<feFlood flood-opacity="0" result="BackgroundImageFix"/>
<feBlend mode="normal" in="SourceGraphic" in2="BackgroundImageFix" result="shape"/>
<feColorMatrix in="SourceAlpha" type="matrix" values="0 0 0 0 0 0 0 0 0 0 0 0 0 0 0 0 0 0 127 0" result="hardAlpha"/>
<feOffset dy="2.11149"/>
<feGaussianBlur stdDeviation="21.1149"/>
<feComposite in2="hardAlpha" operator="arithmetic" k2="-1" k3="1"/>
<feColorMatrix type="matrix" values="0 0 0 0 0.741667 0 0 0 0 0.741667 0 0 0 0 0.741667 0 0 0 0.11 0"/>
<feBlend mode="normal" in2="shape" result="effect1_innerShadow_217_1986"/>
</filter>
<filter id="filter1_i_217_1986" x="19.9995" y="137" width="317" height="116.375" filterUnits="userSpaceOnUse" color-interpolation-filters="sRGB">
<feFlood flood-opacity="0" result="BackgroundImageFix"/>
<feBlend mode="normal" in="SourceGraphic" in2="BackgroundImageFix" result="shape"/>
<feColorMatrix in="SourceAlpha" type="matrix" values="0 0 0 0 0 0 0 0 0 0 0 0 0 0 0 0 0 0 127 0" result="hardAlpha"/>
<feOffset dy="3.37506"/>
<feGaussianBlur stdDeviation="16.8753"/>
<feComposite in2="hardAlpha" operator="arithmetic" k2="-1" k3="1"/>
<feColorMatrix type="matrix" values="0 0 0 0 0.541667 0 0 0 0 0.541667 0 0 0 0 0.541667 0 0 0 0.04 0"/>
<feBlend mode="normal" in2="shape" result="effect1_innerShadow_217_1986"/>
</filter>
<clipPath id="clip0_217_1986">
<rect width="317" height="113" fill="white" transform="translate(20 137)"/>
</clipPath>
</defs>
</svg>
