<svg width="357" height="393" viewBox="0 0 357 393" fill="none" xmlns="http://www.w3.org/2000/svg">
<path d="M9.15527e-05 204.767C13.902 391.961 135.635 389.571 210.021 386.212C349.021 379.934 362.925 274.277 354.534 158.508C347.656 63.6202 310.79 16.0519 200.033 8.89998C19.0207 -2.78857 9.15527e-05 101.383 9.15527e-05 204.767Z" fill="#20484F"/>
<g filter="url(#filter0_d_215_1961)">
<g filter="url(#filter1_d_215_1961)">
<rect x="67.5208" y="43.2114" width="222" height="302.232" rx="9.34737" fill="white"/>
</g>
<rect x="91.6682" y="294.032" width="178.379" height="28.8211" rx="6.23158" fill="#B8E4DA"/>
<circle cx="99.0682" cy="232.106" r="7.4" fill="#DCF2ED"/>
<g clip-path="url(#clip0_215_1961)">
<path d="M97.9969 233.595L96.5082 232.106L96.0012 232.61L97.9969 234.606L102.281 230.321L101.778 229.818L97.9969 233.595Z" fill="#20484F"/>
</g>
<circle cx="99.0682" cy="207.959" r="7.4" fill="#DCF2ED"/>
<g clip-path="url(#clip1_215_1961)">
<path d="M97.9969 209.448L96.5082 207.959L96.0012 208.462L97.9969 210.458L102.281 206.174L101.778 205.67L97.9969 209.448Z" fill="#20484F"/>
</g>
<circle cx="99.0682" cy="256.254" r="7.4" fill="#DCF2ED"/>
<g clip-path="url(#clip2_215_1961)">
<path d="M97.9969 257.742L96.5082 256.253L96.0012 256.757L97.9969 258.752L102.281 254.468L101.778 253.965L97.9969 257.742Z" fill="#20484F"/>
</g>
<rect x="91.6682" y="144.475" width="121.516" height="8.56842" rx="4.28421" fill="#20484F" fill-opacity="0.1"/>
<rect x="91.6682" y="162.39" width="141.768" height="8.56842" rx="4.28421" fill="#20484F" fill-opacity="0.1"/>
<rect x="117.374" y="227.822" width="62.3158" height="8.56842" rx="4.28421" fill="#20484F" fill-opacity="0.1"/>
<rect x="117.374" y="251.969" width="103.6" height="8.56842" rx="4.28421" fill="#20484F" fill-opacity="0.1"/>
<rect x="117.374" y="203.674" width="62.3158" height="8.56842" rx="4.28421" fill="#20484F" fill-opacity="0.1"/>
<path d="M96.4073 125.369C97.1271 125.369 97.758 125.239 98.3002 124.977C98.8423 124.715 99.2676 124.355 99.5761 123.897C99.8846 123.439 100.039 122.911 100.039 122.313C100.039 120.92 99.2069 119.957 97.543 119.424L95.6222 118.822C95.2483 118.7 94.9632 118.532 94.7669 118.317C94.5799 118.092 94.4864 117.835 94.4864 117.546C94.4864 117.162 94.6313 116.854 94.9211 116.62C95.2202 116.377 95.6128 116.256 96.0989 116.256C96.641 116.256 97.1177 116.401 97.529 116.69C97.9403 116.971 98.2488 117.373 98.4544 117.896L100.025 117.195C99.7443 116.41 99.2536 115.779 98.5526 115.302C97.8608 114.826 97.043 114.587 96.0989 114.587C95.4165 114.587 94.8089 114.718 94.2761 114.98C93.7527 115.232 93.3414 115.587 93.0423 116.045C92.7525 116.503 92.6076 117.032 92.6076 117.63C92.6076 118.312 92.8133 118.906 93.2246 119.41C93.6358 119.906 94.2481 120.284 95.0613 120.546L97.0663 121.191C97.4309 121.313 97.7019 121.472 97.8795 121.668C98.0665 121.864 98.16 122.117 98.16 122.425C98.16 122.808 98.0057 123.117 97.6973 123.35C97.3982 123.584 97.0009 123.701 96.5055 123.701C95.9072 123.701 95.3698 123.533 94.8931 123.196C94.4163 122.85 94.0518 122.378 93.7994 121.78L92.215 122.467C92.402 123.047 92.6964 123.556 93.0984 123.995C93.5096 124.425 93.9957 124.762 94.5566 125.005C95.1267 125.248 95.7437 125.369 96.4073 125.369ZM105.079 125.285C105.387 125.285 105.691 125.262 105.99 125.215V123.631C105.813 123.659 105.649 123.673 105.499 123.673C105.051 123.673 104.724 123.57 104.518 123.364C104.312 123.159 104.209 122.864 104.209 122.481V119.214H105.962V117.574H104.209V115.835H102.373V116.424C102.373 116.798 102.27 117.083 102.064 117.279C101.859 117.476 101.569 117.574 101.195 117.574H101.055V119.214H102.373V122.579C102.373 123.43 102.606 124.094 103.074 124.57C103.551 125.047 104.219 125.285 105.079 125.285ZM110.942 125.369C111.718 125.369 112.396 125.196 112.976 124.851C113.564 124.495 113.976 124.047 114.209 123.505L112.723 122.776C112.555 123.065 112.321 123.304 112.022 123.491C111.732 123.668 111.377 123.757 110.956 123.757C110.405 123.757 109.942 123.589 109.568 123.252C109.194 122.916 108.98 122.467 108.923 121.906H114.42C114.457 121.803 114.48 121.687 114.49 121.556C114.508 121.415 114.518 121.275 114.518 121.135C114.518 120.453 114.373 119.831 114.083 119.27C113.793 118.709 113.373 118.261 112.821 117.924C112.27 117.578 111.597 117.405 110.802 117.405C110.092 117.405 109.447 117.578 108.867 117.924C108.297 118.27 107.844 118.742 107.507 119.34C107.18 119.929 107.017 120.607 107.017 121.373C107.017 122.112 107.18 122.785 107.507 123.392C107.834 124 108.292 124.481 108.881 124.837C109.47 125.192 110.157 125.369 110.942 125.369ZM110.802 118.92C111.288 118.92 111.69 119.069 112.008 119.368C112.335 119.658 112.517 120.037 112.555 120.504H108.965C109.068 119.999 109.283 119.611 109.61 119.34C109.947 119.06 110.344 118.92 110.802 118.92ZM115.91 128.005H117.747V124.472C118.027 124.762 118.369 124.986 118.77 125.145C119.172 125.295 119.607 125.369 120.074 125.369C120.813 125.369 121.472 125.196 122.051 124.851C122.631 124.495 123.089 124.019 123.425 123.42C123.762 122.813 123.93 122.135 123.93 121.387C123.93 120.64 123.762 119.967 123.425 119.368C123.089 118.761 122.631 118.284 122.051 117.938C121.472 117.583 120.818 117.405 120.088 117.405C119.565 117.405 119.093 117.499 118.672 117.686C118.252 117.873 117.906 118.135 117.635 118.471V117.574H115.91V128.005ZM119.864 123.687C119.462 123.687 119.098 123.589 118.77 123.392C118.453 123.196 118.2 122.925 118.013 122.579C117.836 122.233 117.747 121.836 117.747 121.387C117.747 120.939 117.836 120.542 118.013 120.196C118.2 119.85 118.453 119.579 118.77 119.382C119.098 119.186 119.462 119.088 119.864 119.088C120.285 119.088 120.654 119.191 120.972 119.396C121.299 119.593 121.556 119.864 121.743 120.21C121.93 120.556 122.023 120.948 122.023 121.387C122.023 121.827 121.93 122.224 121.743 122.579C121.556 122.925 121.299 123.196 120.972 123.392C120.654 123.589 120.285 123.687 119.864 123.687ZM131.552 125.369C132.291 125.369 132.964 125.201 133.571 124.865C134.179 124.519 134.665 124.047 135.029 123.449C135.394 122.841 135.576 122.154 135.576 121.387C135.576 120.621 135.394 119.939 135.029 119.34C134.674 118.742 134.193 118.27 133.585 117.924C132.978 117.578 132.3 117.405 131.552 117.405C130.795 117.405 130.113 117.578 129.505 117.924C128.898 118.27 128.411 118.742 128.047 119.34C127.692 119.939 127.514 120.621 127.514 121.387C127.514 122.154 127.692 122.836 128.047 123.435C128.411 124.033 128.898 124.505 129.505 124.851C130.122 125.196 130.804 125.369 131.552 125.369ZM131.552 123.687C131.141 123.687 130.772 123.589 130.445 123.392C130.127 123.196 129.874 122.925 129.687 122.579C129.51 122.224 129.421 121.827 129.421 121.387C129.421 120.948 129.51 120.556 129.687 120.21C129.874 119.864 130.127 119.593 130.445 119.396C130.772 119.191 131.141 119.088 131.552 119.088C131.963 119.088 132.323 119.191 132.632 119.396C132.95 119.593 133.197 119.864 133.375 120.21C133.562 120.556 133.655 120.948 133.655 121.387C133.655 121.827 133.562 122.224 133.375 122.579C133.197 122.925 132.95 123.196 132.632 123.392C132.323 123.589 131.963 123.687 131.552 123.687ZM136.969 125.201H138.806V120.728C138.806 120.233 138.946 119.836 139.227 119.537C139.516 119.238 139.89 119.088 140.348 119.088C140.806 119.088 141.175 119.238 141.456 119.537C141.746 119.826 141.891 120.224 141.891 120.728V125.201H143.727V120.294C143.727 119.724 143.606 119.224 143.363 118.794C143.12 118.354 142.779 118.013 142.339 117.77C141.909 117.527 141.414 117.405 140.853 117.405C140.376 117.405 139.946 117.499 139.563 117.686C139.189 117.873 138.899 118.149 138.694 118.513V117.574H136.969V125.201ZM148.898 125.369C149.674 125.369 150.351 125.196 150.931 124.851C151.52 124.495 151.931 124.047 152.165 123.505L150.679 122.776C150.51 123.065 150.277 123.304 149.978 123.491C149.688 123.668 149.333 123.757 148.912 123.757C148.36 123.757 147.898 123.589 147.524 123.252C147.15 122.916 146.935 122.467 146.879 121.906H152.375C152.412 121.803 152.436 121.687 152.445 121.556C152.464 121.415 152.473 121.275 152.473 121.135C152.473 120.453 152.328 119.831 152.039 119.27C151.749 118.709 151.328 118.261 150.777 117.924C150.225 117.578 149.552 117.405 148.758 117.405C148.047 117.405 147.402 117.578 146.823 117.924C146.253 118.27 145.799 118.742 145.463 119.34C145.136 119.929 144.972 120.607 144.972 121.373C144.972 122.112 145.136 122.785 145.463 123.392C145.79 124 146.248 124.481 146.837 124.837C147.426 125.192 148.113 125.369 148.898 125.369ZM148.758 118.92C149.244 118.92 149.646 119.069 149.963 119.368C150.291 119.658 150.473 120.037 150.51 120.504H146.921C147.024 119.999 147.239 119.611 147.566 119.34C147.902 119.06 148.3 118.92 148.758 118.92Z" fill="#20484F"/>
<path d="M93.0142 81.9062H95.5567V76.7652H98.2114C99.1586 76.7652 99.9936 76.5969 100.716 76.2604C101.439 75.9115 102.006 75.4067 102.418 74.7462C102.841 74.0856 103.053 73.2942 103.053 72.3719C103.053 71.4247 102.848 70.6271 102.436 69.979C102.025 69.3309 101.452 68.8386 100.716 68.5021C99.9936 68.1532 99.1586 67.9787 98.2114 67.9787H93.0142V81.9062ZM95.5567 74.5218V70.222H98.2488C98.9342 70.222 99.4826 70.4152 99.8939 70.8016C100.305 71.1879 100.511 71.7114 100.511 72.3719C100.511 73.02 100.305 73.5435 99.8939 73.9423C99.4826 74.3286 98.9342 74.5218 98.2488 74.5218H95.5567ZM104.931 81.9062H107.38V76.2417C107.38 75.469 107.592 74.8708 108.016 74.447C108.452 74.0108 109.013 73.7927 109.698 73.7927H110.577V71.6241H109.979C109.355 71.6241 108.807 71.7363 108.333 71.9606C107.86 72.185 107.492 72.59 107.23 73.1758V71.7363H104.931V81.9062ZM116.896 82.1306C117.881 82.1306 118.778 81.9062 119.588 81.4576C120.398 80.9964 121.046 80.367 121.532 79.5694C122.018 78.7593 122.261 77.8433 122.261 76.8213C122.261 75.7993 122.018 74.8895 121.532 74.0918C121.059 73.2942 120.417 72.6648 119.607 72.2037C118.797 71.7425 117.893 71.512 116.896 71.512C115.887 71.512 114.977 71.7425 114.167 72.2037C113.356 72.6648 112.708 73.2942 112.222 74.0918C111.749 74.8895 111.512 75.7993 111.512 76.8213C111.512 77.8433 111.749 78.7531 112.222 79.5507C112.708 80.3484 113.356 80.9777 114.167 81.4389C114.989 81.9 115.899 82.1306 116.896 82.1306ZM116.896 79.8872C116.348 79.8872 115.855 79.7564 115.419 79.4946C114.995 79.2329 114.659 78.8715 114.41 78.4103C114.173 77.9367 114.054 77.407 114.054 76.8213C114.054 76.2355 114.173 75.7121 114.41 75.2509C114.659 74.7898 114.995 74.4284 115.419 74.1666C115.855 73.8924 116.348 73.7553 116.896 73.7553C117.444 73.7553 117.924 73.8924 118.336 74.1666C118.759 74.4284 119.09 74.7898 119.326 75.2509C119.576 75.7121 119.7 76.2355 119.7 76.8213C119.7 77.407 119.576 77.9367 119.326 78.4103C119.09 78.8715 118.759 79.2329 118.336 79.4946C117.924 79.7564 117.444 79.8872 116.896 79.8872ZM124.119 70.5959H126.568V67.9787H124.119V70.5959ZM122.717 86.0378C123.901 86.0378 124.835 85.7262 125.521 85.1031C126.219 84.4799 126.568 83.5888 126.568 82.4297V71.7363H124.119V82.4297C124.119 82.9158 123.969 83.2772 123.67 83.514C123.383 83.7633 122.978 83.8879 122.455 83.8879C122.218 83.8879 121.994 83.8692 121.782 83.8318V85.963C121.894 85.9879 122.037 86.0066 122.212 86.0191C122.386 86.0316 122.555 86.0378 122.717 86.0378ZM133.652 82.1306C134.687 82.1306 135.59 81.9 136.363 81.4389C137.148 80.9653 137.696 80.367 138.008 79.6442L136.026 78.6721C135.802 79.0584 135.49 79.3762 135.092 79.6255C134.705 79.8623 134.232 79.9807 133.671 79.9807C132.935 79.9807 132.319 79.7564 131.82 79.3077C131.321 78.859 131.035 78.2608 130.96 77.513H138.288C138.338 77.3759 138.369 77.2201 138.382 77.0456C138.407 76.8587 138.419 76.6717 138.419 76.4848C138.419 75.575 138.226 74.7462 137.84 73.9984C137.453 73.2506 136.892 72.6524 136.157 72.2037C135.422 71.7425 134.524 71.512 133.465 71.512C132.518 71.512 131.658 71.7425 130.885 72.2037C130.125 72.6648 129.521 73.2942 129.072 74.0918C128.636 74.877 128.418 75.7806 128.418 76.8026C128.418 77.7872 128.636 78.6845 129.072 79.4946C129.508 80.3047 130.119 80.9466 130.904 81.4202C131.689 81.8938 132.605 82.1306 133.652 82.1306ZM133.465 73.531C134.113 73.531 134.649 73.7304 135.073 74.1292C135.509 74.5156 135.752 75.0204 135.802 75.6435H131.016C131.153 74.9705 131.44 74.4533 131.876 74.0918C132.325 73.718 132.854 73.531 133.465 73.531ZM145.174 82.1306C145.909 82.1306 146.588 82.006 147.211 81.7567C147.835 81.495 148.371 81.1398 148.819 80.6911C149.268 80.23 149.592 79.7127 149.791 79.1394L147.641 78.1673C147.442 78.7032 147.124 79.127 146.688 79.4385C146.264 79.7377 145.759 79.8872 145.174 79.8872C144.638 79.8872 144.158 79.7564 143.734 79.4946C143.323 79.2329 142.999 78.8715 142.762 78.4103C142.525 77.9367 142.407 77.407 142.407 76.8213C142.407 76.223 142.525 75.6934 142.762 75.2322C142.999 74.7711 143.323 74.4097 143.734 74.1479C144.158 73.8862 144.638 73.7553 145.174 73.7553C145.759 73.7553 146.264 73.9111 146.688 74.2227C147.124 74.5343 147.442 74.9456 147.641 75.4566L149.791 74.5218C149.579 73.9236 149.249 73.4001 148.801 72.9515C148.352 72.4903 147.816 72.1351 147.193 71.8859C146.57 71.6366 145.897 71.512 145.174 71.512C144.164 71.512 143.254 71.7425 142.444 72.2037C141.647 72.6648 141.017 73.2942 140.556 74.0918C140.095 74.8895 139.864 75.7931 139.864 76.8026C139.864 77.8121 140.095 78.7219 140.556 79.532C141.017 80.3297 141.647 80.9653 142.444 81.4389C143.254 81.9 144.164 82.1306 145.174 82.1306ZM156.286 82.0184C156.697 82.0184 157.102 81.9873 157.501 81.9249V79.8124C157.264 79.8498 157.046 79.8685 156.847 79.8685C156.248 79.8685 155.812 79.7314 155.538 79.4572C155.264 79.183 155.127 78.7905 155.127 78.2795V73.9236H157.464V71.7363H155.127V69.4182H152.678V70.2033C152.678 70.7019 152.541 71.082 152.266 71.3437C151.992 71.6054 151.606 71.7363 151.107 71.7363H150.92V73.9236H152.678V78.4103C152.678 79.5445 152.989 80.4294 153.613 81.065C154.248 81.7006 155.139 82.0184 156.286 82.0184ZM169.761 82.1306C170.796 82.1306 171.756 81.9499 172.64 81.5884C173.525 81.227 174.298 80.7222 174.959 80.0742C175.619 79.4261 176.13 78.6658 176.492 77.7934C176.865 76.9085 177.052 75.9551 177.052 74.9331C177.052 73.8987 176.865 72.9452 176.492 72.0728C176.13 71.2004 175.619 70.4464 174.959 69.8108C174.298 69.1627 173.525 68.6579 172.64 68.2965C171.756 67.935 170.796 67.7543 169.761 67.7543C168.727 67.7543 167.767 67.935 166.882 68.2965C165.998 68.6579 165.225 69.1627 164.564 69.8108C163.916 70.4464 163.405 71.2004 163.031 72.0728C162.67 72.9452 162.489 73.8987 162.489 74.9331C162.489 75.9551 162.67 76.9085 163.031 77.7934C163.405 78.6658 163.922 79.4261 164.583 80.0742C165.244 80.7222 166.016 81.227 166.901 81.5884C167.786 81.9499 168.739 82.1306 169.761 82.1306ZM169.761 79.8124C168.864 79.8124 168.054 79.6006 167.331 79.1768C166.621 78.7531 166.06 78.1735 165.649 77.4382C165.237 76.7029 165.032 75.8678 165.032 74.9331C165.032 73.9984 165.237 73.1696 165.649 72.4467C166.06 71.7114 166.621 71.1318 167.331 70.7081C168.054 70.2844 168.864 70.0725 169.761 70.0725C170.671 70.0725 171.481 70.2844 172.192 70.7081C172.902 71.1318 173.463 71.7114 173.874 72.4467C174.286 73.1696 174.491 73.9984 174.491 74.9331C174.491 75.8678 174.286 76.7029 173.874 77.4382C173.463 78.1735 172.902 78.7531 172.192 79.1768C171.481 79.6006 170.671 79.8124 169.761 79.8124ZM182.173 81.9062H184.342L188.343 71.7363H185.669L183.258 78.3729L180.846 71.7363H178.173L182.173 81.9062ZM194.337 82.1306C195.371 82.1306 196.275 81.9 197.048 81.4389C197.833 80.9653 198.381 80.367 198.693 79.6442L196.711 78.6721C196.487 79.0584 196.175 79.3762 195.776 79.6255C195.39 79.8623 194.916 79.9807 194.356 79.9807C193.62 79.9807 193.003 79.7564 192.505 79.3077C192.006 78.859 191.72 78.2608 191.645 77.513H198.973C199.023 77.3759 199.054 77.2201 199.067 77.0456C199.092 76.8587 199.104 76.6717 199.104 76.4848C199.104 75.575 198.911 74.7462 198.525 73.9984C198.138 73.2506 197.577 72.6524 196.842 72.2037C196.107 71.7425 195.209 71.512 194.15 71.512C193.203 71.512 192.343 71.7425 191.57 72.2037C190.81 72.6648 190.205 73.2942 189.757 74.0918C189.321 74.877 189.102 75.7806 189.102 76.8026C189.102 77.7872 189.321 78.6845 189.757 79.4946C190.193 80.3047 190.804 80.9466 191.589 81.4202C192.374 81.8938 193.29 82.1306 194.337 82.1306ZM194.15 73.531C194.798 73.531 195.334 73.7304 195.758 74.1292C196.194 74.5156 196.437 75.0204 196.487 75.6435H191.701C191.838 74.9705 192.125 74.4533 192.561 74.0918C193.01 73.718 193.539 73.531 194.15 73.531ZM200.961 81.9062H203.41V76.2417C203.41 75.469 203.621 74.8708 204.045 74.447C204.481 74.0108 205.042 73.7927 205.728 73.7927H206.606V71.6241H206.008C205.385 71.6241 204.837 71.7363 204.363 71.9606C203.889 72.185 203.522 72.59 203.26 73.1758V71.7363H200.961V81.9062ZM211.019 81.9062H213.187L217.188 71.7363H214.515L212.103 78.3729L209.691 71.7363H207.018L211.019 81.9062ZM218.542 70.5959H220.991V67.9787H218.542V70.5959ZM218.542 81.9062H220.991V71.7363H218.542V81.9062ZM228.075 82.1306C229.11 82.1306 230.013 81.9 230.786 81.4389C231.571 80.9653 232.119 80.367 232.431 79.6442L230.449 78.6721C230.225 79.0584 229.913 79.3762 229.515 79.6255C229.128 79.8623 228.655 79.9807 228.094 79.9807C227.358 79.9807 226.742 79.7564 226.243 79.3077C225.745 78.859 225.458 78.2608 225.383 77.513H232.711C232.761 77.3759 232.792 77.2201 232.805 77.0456C232.83 76.8587 232.842 76.6717 232.842 76.4848C232.842 75.575 232.649 74.7462 232.263 73.9984C231.876 73.2506 231.316 72.6524 230.58 72.2037C229.845 71.7425 228.948 71.512 227.888 71.512C226.941 71.512 226.081 71.7425 225.308 72.2037C224.548 72.6648 223.944 73.2942 223.495 74.0918C223.059 74.877 222.841 75.7806 222.841 76.8026C222.841 77.7872 223.059 78.6845 223.495 79.4946C223.931 80.3047 224.542 80.9466 225.327 81.4202C226.112 81.8938 227.028 82.1306 228.075 82.1306ZM227.888 73.531C228.536 73.531 229.072 73.7304 229.496 74.1292C229.932 74.5156 230.175 75.0204 230.225 75.6435H225.439C225.576 74.9705 225.863 74.4533 226.299 74.0918C226.748 73.718 227.277 73.531 227.888 73.531ZM237.26 81.9062H239.429L241.821 75.0453L244.177 81.9062H246.364L249.86 71.7363H247.28L245.149 78.1299L242.906 71.7363H240.737L238.475 78.1486L236.344 71.7363H233.764L237.26 81.9062Z" fill="#20484F"/>
</g>
<defs>
<filter id="filter0_d_215_1961" x="22.4116" y="0.35769" width="312.218" height="392.45" filterUnits="userSpaceOnUse" color-interpolation-filters="sRGB">
<feFlood flood-opacity="0" result="BackgroundImageFix"/>
<feColorMatrix in="SourceAlpha" type="matrix" values="0 0 0 0 0 0 0 0 0 0 0 0 0 0 0 0 0 0 127 0" result="hardAlpha"/>
<feOffset dy="2.25546"/>
<feGaussianBlur stdDeviation="22.5546"/>
<feComposite in2="hardAlpha" operator="out"/>
<feColorMatrix type="matrix" values="0 0 0 0 0.741667 0 0 0 0 0.741667 0 0 0 0 0.741667 0 0 0 0.11 0"/>
<feBlend mode="normal" in2="BackgroundImageFix" result="effect1_dropShadow_215_1961"/>
<feBlend mode="normal" in="SourceGraphic" in2="effect1_dropShadow_215_1961" result="shape"/>
</filter>
<filter id="filter1_d_215_1961" x="36.3629" y="15.1693" width="284.316" height="364.547" filterUnits="userSpaceOnUse" color-interpolation-filters="sRGB">
<feFlood flood-opacity="0" result="BackgroundImageFix"/>
<feColorMatrix in="SourceAlpha" type="matrix" values="0 0 0 0 0 0 0 0 0 0 0 0 0 0 0 0 0 0 127 0" result="hardAlpha"/>
<feOffset dy="3.11579"/>
<feGaussianBlur stdDeviation="15.5789"/>
<feComposite in2="hardAlpha" operator="out"/>
<feColorMatrix type="matrix" values="0 0 0 0 0.541667 0 0 0 0 0.541667 0 0 0 0 0.541667 0 0 0 0.04 0"/>
<feBlend mode="normal" in2="BackgroundImageFix" result="effect1_dropShadow_215_1961"/>
<feBlend mode="normal" in="SourceGraphic" in2="effect1_dropShadow_215_1961" result="shape"/>
</filter>
<clipPath id="clip0_215_1961">
<rect width="8.56842" height="8.56842" fill="white" transform="translate(94.7839 227.822)"/>
</clipPath>
<clipPath id="clip1_215_1961">
<rect width="8.56842" height="8.56842" fill="white" transform="translate(94.7839 203.675)"/>
</clipPath>
<clipPath id="clip2_215_1961">
<rect width="8.56842" height="8.56842" fill="white" transform="translate(94.7839 251.969)"/>
</clipPath>
</defs>
</svg>
