<svg width="44" height="44" viewBox="0 0 44 44" fill="none" xmlns="http://www.w3.org/2000/svg">
<rect width="44" height="44" rx="12" fill="#DCF2ED"/>
<path d="M21.5 12C16.81 12 13 15.81 13 20.5C13 25.19 16.81 29 21.5 29H22V32C26.86 29.66 30 25 30 20.5C30 15.81 26.19 12 21.5 12ZM22.5 26.5H20.5V24.5H22.5V26.5ZM22.5 23H20.5C20.5 19.75 23.5 20 23.5 18C23.5 16.9 22.6 16 21.5 16C20.4 16 19.5 16.9 19.5 18H17.5C17.5 15.79 19.29 14 21.5 14C23.71 14 25.5 15.79 25.5 18C25.5 20.5 22.5 20.75 22.5 23Z" fill="#20484F"/>
</svg>
