<svg width="56" height="56" viewBox="0 0 56 56" fill="none" xmlns="http://www.w3.org/2000/svg">
<rect width="56" height="56" rx="12" fill="#DCF2ED"/>
<path d="M38 21.7199L33.4 17.8599L32.11 19.3899L36.71 23.2499L38 21.7199ZM23.88 19.3899L22.6 17.8599L18 21.7099L19.29 23.2399L23.88 19.3899ZM28.5 23.9999H27V29.9999L31.75 32.8499L32.5 31.6199L28.5 29.2499V23.9999ZM28 19.9999C23.03 19.9999 19 24.0299 19 28.9999C19 33.9699 23.02 37.9999 28 37.9999C32.97 37.9999 37 33.9699 37 28.9999C37 24.0299 32.97 19.9999 28 19.9999ZM28 35.9999C24.13 35.9999 21 32.8699 21 28.9999C21 25.1299 24.13 21.9999 28 21.9999C31.87 21.9999 35 25.1299 35 28.9999C35 32.8699 31.87 35.9999 28 35.9999Z" fill="#20484F"/>
</svg>
